<svg width="156" height="64" viewBox="0 0 156 64" fill="none" xmlns="http://www.w3.org/2000/svg">
<g clip-path="url(#clip0_2657_1919)">
<path d="M4.94949 52.2915L0 63.8355H1.83818L3.03979 61.0318H8.66875L9.87036 63.8355H11.8087L6.8878 52.2987H4.94949V52.2915ZM3.77649 59.3152L4.96379 56.5472C5.04247 56.3469 5.1283 56.1252 5.22843 55.882C5.32857 55.6317 5.4287 55.3742 5.53599 55.1024C5.64327 54.8306 5.74341 54.5588 5.83639 54.2942C5.85069 54.2584 5.85785 54.2298 5.87215 54.2012C5.87215 54.2084 5.87215 54.2155 5.8793 54.2227C5.97944 54.4945 6.08672 54.7734 6.19401 55.0738C6.3013 55.3742 6.40858 55.646 6.50156 55.9035C6.59455 56.161 6.67322 56.3541 6.72329 56.49L7.9392 59.3223H3.78364L3.77649 59.3152Z" fill="white"/>
<path d="M22.7662 56.0824C22.7662 56.5187 22.7662 56.955 22.7734 57.3842C22.7734 57.8133 22.7877 58.2353 22.8091 58.643C22.8306 59.0507 22.8449 59.4512 22.8735 59.8303C22.9021 60.2094 22.9307 60.5742 22.9665 60.9175C22.9808 61.0891 23.0022 61.2537 23.0237 61.411L15.2848 52.2845H13.6111V63.8214H15.3992V59.0221C15.3992 58.8433 15.3992 58.6502 15.3849 58.4356C15.3706 58.221 15.3634 57.985 15.342 57.7275C15.3277 57.47 15.2991 57.1839 15.2704 56.8621C15.2347 56.5402 15.2061 56.1897 15.1703 55.7963C15.1489 55.5174 15.1202 55.2098 15.0988 54.8808L22.852 63.8142H24.5543V52.2773H22.7662V56.0681V56.0824Z" fill="white"/>
<path d="M31.2919 52.2915L26.3424 63.8284H28.1806L29.3822 61.0246H35.0112L36.2128 63.8284H38.1511L33.2302 52.2915H31.2919ZM30.1189 59.3152L31.3062 56.5472C31.3849 56.3469 31.4707 56.1252 31.5709 55.882C31.671 55.6317 31.7711 55.3742 31.8784 55.1024C31.9857 54.8306 32.0858 54.5588 32.1788 54.2942C32.1931 54.2584 32.2003 54.2298 32.2146 54.2012C32.2146 54.2084 32.2146 54.2155 32.2217 54.2227C32.3219 54.4945 32.4291 54.7734 32.5364 55.0738C32.6437 55.3742 32.751 55.646 32.844 55.9035C32.937 56.161 33.0156 56.3541 33.0657 56.49L34.2816 59.3223H30.1261L30.1189 59.3152Z" fill="white"/>
<path d="M49.3232 53.9437C48.8154 53.4144 48.2003 53.0067 47.4779 52.7206C46.7555 52.4346 45.9329 52.2915 45.0174 52.2915H39.9535V63.8284H45.0174C45.9329 63.8284 46.7555 63.6853 47.485 63.3992C48.2146 63.1131 48.8297 62.7126 49.3304 62.1976C49.831 61.6827 50.2173 61.0747 50.4819 60.3666C50.7465 59.6657 50.8824 58.8932 50.8824 58.0564C50.8824 57.2195 50.7537 56.4685 50.4819 55.7747C50.2173 55.0738 49.831 54.4658 49.3232 53.9366V53.9437ZM48.7582 59.7157C48.5793 60.2092 48.3219 60.6384 47.9857 60.996C47.6495 61.3536 47.2275 61.6326 46.7126 61.8257C46.1976 62.026 45.6039 62.1189 44.9316 62.1189H41.7345V54.0081H44.9316C45.6039 54.0081 46.1976 54.1082 46.7054 54.3013C47.2132 54.4945 47.6352 54.7806 47.9785 55.1453C48.3219 55.5101 48.5793 55.9392 48.7582 56.4328C48.937 56.9263 49.0228 57.4699 49.0228 58.0635C49.0228 58.6572 48.937 59.2151 48.7582 59.7086V59.7157Z" fill="white"/>
<path d="M62.9414 53.8366C62.3836 53.293 61.7255 52.871 60.9745 52.5777C60.2235 52.2845 59.3938 52.1343 58.4998 52.1343C57.6057 52.1343 56.7689 52.2845 56.0179 52.5777C55.2669 52.871 54.6089 53.293 54.051 53.8294C53.4859 54.3658 53.0568 54.9953 52.7492 55.7176C52.4488 56.44 52.2915 57.2197 52.2915 58.0636C52.2915 58.9076 52.4417 59.6944 52.7492 60.4096C53.0496 61.132 53.4859 61.7615 54.051 62.2979C54.616 62.8343 55.274 63.2563 56.0179 63.5496C56.7689 63.8428 57.5986 63.993 58.4998 63.993C59.401 63.993 60.2164 63.8428 60.9745 63.5496C61.7327 63.2563 62.3907 62.8343 62.9414 62.2907C63.4993 61.7472 63.9285 61.1177 64.2432 60.3953C64.5507 59.6729 64.7081 58.9005 64.7081 58.0636C64.7081 57.2268 64.5507 56.4543 64.2432 55.732C63.9356 55.0096 63.4993 54.3801 62.9414 53.8366ZM62.5624 59.7373C62.3478 60.2451 62.0402 60.6957 61.654 61.0748C61.2606 61.4539 60.7957 61.7472 60.2664 61.9546C59.73 62.162 59.1435 62.2693 58.4998 62.2693C57.8561 62.2693 57.2696 62.162 56.7331 61.9546C56.1967 61.7472 55.7318 61.4539 55.3313 61.0748C54.9307 60.6957 54.6303 60.2523 54.4229 59.7373C54.2155 59.2295 54.1082 58.6716 54.1082 58.0636C54.1082 57.4557 54.2155 56.905 54.4229 56.39C54.6303 55.8822 54.9379 55.4316 55.3313 55.0525C55.7246 54.6734 56.1967 54.3801 56.7331 54.1727C57.2696 53.9653 57.8561 53.858 58.4998 53.858C59.1435 53.858 59.73 53.9653 60.2664 54.1727C60.8029 54.3801 61.2678 54.6734 61.654 55.0525C62.0474 55.4316 62.3478 55.875 62.5624 56.39C62.7769 56.8978 62.8842 57.4557 62.8842 58.0636C62.8842 58.6716 62.7769 59.2223 62.5624 59.7373Z" fill="white"/>
<path d="M68.7635 52.2915H66.9754V63.8355H75.122V62.1189H68.7635V52.2915Z" fill="white"/>
<path d="M85.021 58.8576C85.021 59.4942 84.8708 60.0664 84.5633 60.5742C84.2557 61.082 83.848 61.4825 83.3402 61.7758C82.8324 62.069 82.2459 62.2192 81.595 62.2192C80.9441 62.2192 80.4148 62.069 79.9142 61.7758C79.4135 61.4825 79.0058 61.0748 78.7054 60.5742C78.405 60.0664 78.2477 59.4942 78.2477 58.8576V52.2773H76.4595V58.972C76.4595 59.9161 76.6741 60.7673 77.1104 61.5183C77.5467 62.2693 78.1475 62.863 78.92 63.2921C79.6924 63.7212 80.5794 63.9358 81.5878 63.9358C82.5963 63.9358 83.4832 63.7212 84.2557 63.2921C85.0282 62.863 85.6361 62.2693 86.0724 61.5183C86.5087 60.7673 86.7233 59.9161 86.7233 58.972V52.2773H85.021V58.8576Z" fill="white"/>
<path d="M105.77 58.3495C105.756 58.2422 105.742 58.1206 105.72 57.9776H99.9911V59.7228H103.846C103.861 60.0732 103.768 60.4094 103.574 60.7169C103.381 61.0316 103.102 61.3034 102.745 61.5323C102.387 61.7612 101.972 61.94 101.5 62.0687C101.028 62.1975 100.535 62.2619 100.02 62.2619C99.4046 62.2619 98.8181 62.1617 98.2673 61.9686C97.7166 61.7683 97.2231 61.4894 96.7939 61.1175C96.3648 60.7527 96.0286 60.3092 95.7854 59.7871C95.5422 59.2721 95.4207 58.6928 95.4207 58.0562C95.4207 57.4626 95.5351 56.919 95.7711 56.4183C96 55.9177 96.329 55.4814 96.751 55.1094C97.173 54.7375 97.6594 54.4443 98.2173 54.2368C98.7751 54.0294 99.376 53.9221 100.027 53.9221C100.47 53.9221 100.899 53.9793 101.329 54.1009C101.751 54.2225 102.165 54.387 102.552 54.6016C102.945 54.8162 103.317 55.0737 103.667 55.3812L104.826 54.1438C104.526 53.7791 104.132 53.4501 103.639 53.1568C103.145 52.8636 102.595 52.6204 101.972 52.4487C101.357 52.2699 100.699 52.1841 100.02 52.1841C99.1113 52.1841 98.2673 52.3343 97.4877 52.6275C96.7009 52.9279 96.0143 53.3428 95.4278 53.8721C94.8342 54.4085 94.3764 55.0308 94.0545 55.746C93.7255 56.4612 93.5682 57.2265 93.5682 58.0562C93.5682 58.9431 93.7327 59.7585 94.0617 60.4881C94.3907 61.2176 94.8485 61.847 95.435 62.3692C96.0215 62.8913 96.6938 63.2918 97.4663 63.5708C98.2316 63.8497 99.0541 63.9928 99.9267 63.9928C100.799 63.9928 101.557 63.8712 102.273 63.6351C102.988 63.3991 103.603 63.0629 104.125 62.6195C104.647 62.1832 105.062 61.6468 105.355 61.0102C105.656 60.3808 105.806 59.6584 105.806 58.8573C105.806 58.7786 105.806 58.7 105.799 58.6213C105.792 58.5426 105.785 58.4425 105.777 58.3423L105.77 58.3495Z" fill="white"/>
<path d="M115.397 59.0364C115.977 58.7074 116.442 58.264 116.785 57.7204C117.135 57.1696 117.307 56.5688 117.307 55.9251C117.307 55.2456 117.143 54.6305 116.814 54.0798C116.485 53.529 116.034 53.0927 115.469 52.778C114.904 52.4633 114.289 52.2988 113.616 52.2988H107.952V63.8357H109.74V59.5299H112.908L115.669 63.8357L117.872 63.85L114.89 59.2725C115.061 59.2081 115.233 59.1294 115.397 59.0364ZM109.74 54.0083H113.23C113.652 54.0083 114.024 54.0941 114.367 54.2586C114.711 54.4231 114.968 54.652 115.161 54.9309C115.354 55.217 115.455 55.5389 115.455 55.9037C115.455 56.2684 115.369 56.576 115.197 56.8692C115.025 57.1625 114.797 57.3914 114.503 57.563C114.21 57.7347 113.881 57.8205 113.516 57.8205H109.74V54.0154V54.0083Z" fill="white"/>
<path d="M128.272 58.8576C128.272 59.4942 128.122 60.0664 127.814 60.5742C127.506 61.082 127.099 61.4825 126.591 61.7758C126.083 62.069 125.497 62.2192 124.846 62.2192C124.195 62.2192 123.666 62.069 123.165 61.7758C122.664 61.4825 122.257 61.0748 121.956 60.5742C121.656 60.0664 121.498 59.4942 121.498 58.8576V52.2773H119.71V58.972C119.71 59.9161 119.925 60.7673 120.361 61.5183C120.797 62.2693 121.398 62.863 122.171 63.2921C122.943 63.7212 123.83 63.9358 124.839 63.9358C125.847 63.9358 126.734 63.7212 127.506 63.2921C128.279 62.863 128.887 62.2693 129.323 61.5183C129.759 60.7673 129.974 59.9161 129.974 58.972V52.2773H128.272V58.8576Z" fill="white"/>
<path d="M141.432 57.9489C141.16 57.7701 140.86 57.6342 140.545 57.5269C140.975 57.3553 141.325 57.105 141.597 56.7902C141.969 56.3468 142.162 55.8175 142.162 55.2024C142.162 54.5873 142.019 54.0437 141.726 53.6146C141.432 53.1783 141.003 52.8564 140.445 52.6347C139.88 52.4129 139.186 52.3057 138.357 52.3057H132.928V63.8425H138.621C139.208 63.8425 139.744 63.7782 140.245 63.6423C140.746 63.5064 141.182 63.3133 141.561 63.0415C141.94 62.7697 142.241 62.4192 142.455 61.9829C142.67 61.5466 142.777 61.0316 142.777 60.438C142.777 59.8801 142.655 59.3866 142.412 58.9717C142.169 58.5569 141.847 58.2136 141.432 57.9489ZM134.709 54.0079H138.221C138.865 54.0079 139.372 54.1295 139.759 54.3799C140.145 54.6302 140.338 55.0021 140.338 55.51C140.338 55.8032 140.252 56.0678 140.08 56.3039C139.909 56.5328 139.68 56.7187 139.387 56.8475C139.093 56.9762 138.772 57.0477 138.421 57.0477H134.709V54.0151V54.0079ZM140.653 61.3535C140.452 61.611 140.181 61.8041 139.83 61.9328C139.48 62.0616 139.065 62.1188 138.578 62.1188H134.702V58.7572H138.493C138.936 58.7572 139.337 58.8144 139.709 58.9288C140.08 59.0433 140.374 59.2221 140.603 59.4653C140.831 59.7084 140.939 60.0231 140.939 60.4022C140.939 60.7813 140.839 61.0889 140.638 61.3535H140.653Z" fill="white"/>
<path d="M153.42 52.2773V58.8576C153.42 59.4942 153.27 60.0664 152.962 60.5742C152.654 61.082 152.247 61.4825 151.739 61.7758C151.231 62.069 150.645 62.2192 149.994 62.2192C149.343 62.2192 148.814 62.069 148.313 61.7758C147.812 61.4825 147.405 61.0748 147.104 60.5742C146.804 60.0664 146.646 59.4942 146.646 58.8576V52.2773H144.858V58.972C144.858 59.9161 145.073 60.7673 145.509 61.5183C145.945 62.2693 146.546 62.863 147.319 63.2921C148.091 63.7212 148.978 63.9358 149.987 63.9358C150.995 63.9358 151.882 63.7212 152.654 63.2921C153.427 62.863 154.035 62.2693 154.471 61.5183C154.907 60.7673 155.122 59.9161 155.122 58.972V52.2773H153.42Z" fill="white"/>
<path d="M91.5297 17.3306C91.5798 17.5165 91.7371 17.6739 91.873 17.8313C91.823 17.8599 91.7944 17.9099 91.7443 17.8813C91.5583 18.0101 91.637 18.1174 91.637 18.3033C91.873 18.4321 91.823 18.7253 92.0876 18.9113C92.2736 19.2546 92.481 19.5407 92.6956 19.8554C92.7242 19.9055 92.8815 20.0914 92.9817 20.2273C93.0317 20.4133 93.139 20.6493 93.325 20.8353C93.2177 20.914 93.3751 20.9926 93.4323 21.0427C93.4609 21.0713 93.4823 20.9926 93.511 21.0427C93.561 21.2001 93.6182 21.3574 93.6397 21.5148C94.0116 21.8009 93.9258 22.2515 94.2977 22.5447C94.6911 23.0168 94.7984 23.4888 95.1918 23.968L95.1632 24.0467C95.8212 25.0481 96.2146 25.892 96.4792 26.9935C96.7152 27.2009 96.4005 27.5443 96.7438 27.7588C96.6652 28.3382 97.3733 28.4955 97.2159 29.1536C97.3733 29.4397 97.4805 29.8402 97.5592 30.205C97.7952 30.441 97.5878 30.5984 97.7452 30.8916C97.6379 30.9202 97.6951 31.099 97.6951 31.2063C97.9311 31.4137 97.6665 31.9716 98.0885 32.179C98.0384 32.2291 97.9312 32.2863 97.9598 32.4151C98.3818 33.023 98.2459 34.0744 98.0885 34.7825C98.0885 34.9685 98.2459 35.0686 98.0885 35.2331C98.2959 35.3905 98.0885 35.6265 98.3245 35.7338C98.4318 36.1057 97.8239 36.1558 98.0384 36.5206C97.8811 37.1285 97.8525 37.7079 97.4591 38.23V38.466C97.0371 38.8093 96.8511 39.5961 96.2217 39.7821C95.6424 40.39 94.6696 40.3328 94.0116 40.2041C93.2749 40.39 92.6455 39.9394 91.9303 39.7821C91.9016 39.7821 91.823 39.7535 91.8015 39.8107V39.8894C90.0635 39.3386 88.1681 38.7021 86.3514 38.1013C85.6433 37.7865 84.7492 37.6507 84.1699 37.2358C84.0411 37.3431 84.0411 37.1285 83.9052 37.1571V37.0498C83.7479 37.2358 83.3759 36.9712 83.1685 36.9211L83.0898 36.8424L83.0398 36.9211C82.4604 36.6851 81.8525 36.449 81.3017 36.1844C80.8511 36.1057 80.4077 35.8983 80.0358 35.7123C80.1144 35.6337 80.3505 35.8697 80.4291 35.6623C80.2432 35.5836 80.1931 35.1115 79.8999 35.3762L79.8498 35.5836C79.4564 35.6122 79.1131 35.3762 78.7984 35.1902C78.5624 35.0615 78.219 35.1902 78.1404 34.8755C77.9043 35.0042 77.8757 34.6895 77.6683 34.7182C76.9316 34.5107 76.2736 34.0887 75.6156 33.7955C75.8516 33.7669 75.7443 33.5595 75.6656 33.4236C75.3509 33.3449 75.1649 33.0516 74.8216 33.0302C74.5069 32.8442 74.1922 32.6869 73.8775 32.5581C73.4054 32.5081 73.0121 32.0861 72.5329 31.9287C72.2968 32.1147 72.2682 31.6927 72.0322 31.6426C71.6603 31.5639 71.4028 31.2492 70.9522 31.1705C70.2441 30.8845 69.5574 30.5125 68.8493 30.1692C68.4774 29.9046 68.0054 29.7758 67.6907 29.4826C67.9767 29.3252 68.2199 29.7973 68.5346 29.6399L68.4274 29.4826L68.6348 29.4325C68.6348 29.2465 68.3701 29.1679 68.2128 29.0391L68.3201 28.9604C68.6062 29.1965 69.0854 29.1679 69.35 29.411C69.536 29.3038 69.8507 29.5183 69.9794 29.2251C70.2155 29.1464 70.2655 29.7258 70.5302 29.3824C70.8163 29.4611 70.9522 29.5899 71.2383 29.5398C71.1882 29.4611 71.0523 29.3824 71.0523 29.2752C71.2597 29.4611 71.603 29.4611 71.8176 29.6471C71.6889 29.6471 71.553 29.6185 71.3956 29.6757C71.553 29.7544 71.7103 29.9403 71.9463 29.9618C72.025 29.8545 71.8963 29.8044 71.975 29.6971C72.7117 29.8545 73.2624 30.3838 73.949 30.5912C74.4998 30.9059 75.1578 30.7986 75.5798 31.2778C75.9732 31.3565 76.5025 31.4638 76.8672 31.6998C76.8958 31.8572 77.1319 31.7785 77.2105 31.9359C77.5252 32.0145 77.9186 32.1719 78.262 32.3292C78.6839 32.3793 79.2061 32.1433 79.578 32.5152C79.764 32.4866 79.814 32.7798 80 32.5939C80.0286 32.9086 80.422 32.88 80.5507 33.0659C80.8941 32.9873 81.316 33.4093 81.6021 33.0659C81.8882 33.0946 82.0241 33.4093 82.3102 33.302C82.6535 33.6739 83.283 33.302 83.4975 33.8313C83.6835 33.8026 83.9696 33.8599 84.1055 34.0172C84.5275 33.8313 84.8923 34.2532 85.2928 34.3891C85.5288 34.7611 86.0295 34.5751 86.4014 34.7038C86.5874 34.8898 86.9021 34.7038 87.1381 34.7325V34.8111C87.6889 35.0472 88.1895 35.0472 88.7403 35.0972L88.9477 34.9399C88.7903 34.8612 88.5758 34.8612 88.397 34.8612C88.1895 34.8326 87.9464 34.8111 87.8462 34.6252C88.2968 34.6252 88.7117 34.5465 89.1122 34.6252C89.4841 34.4964 90.1922 34.5751 90.2709 34.0744C90.8216 33.2877 91.4582 32.3865 91.4582 31.4709C91.4868 31.099 91.7228 30.7629 91.5655 30.4696V30.205C91.4367 29.4683 91.5154 28.5742 91.2794 27.8375C91.2293 27.1008 91.2007 26.3927 90.8073 25.8134C90.886 25.4701 90.6786 25.3413 90.6786 25.0266C90.4712 24.8192 90.5498 24.2613 90.2852 24.0825C90.3639 23.8178 90.1278 23.7678 90.0492 23.5532C89.9705 23.1598 89.8131 22.8666 89.6558 22.5018C89.527 22.1871 89.3697 21.8938 89.2839 21.5577C88.9405 21.2716 88.9978 20.6922 88.7331 20.4276C88.2825 19.319 87.5744 18.2962 86.9951 17.2448L91.5512 17.3735L91.5297 17.3306ZM62.9414 14.3838C62.8914 14.4625 62.7841 14.5125 62.6768 14.4911C62.7054 14.4124 62.8628 14.3838 62.9414 14.3838ZM99.9195 14.6699C99.6549 14.6699 99.1828 14.6699 98.9754 14.5411C99.3187 14.4911 99.6334 14.6198 99.9195 14.6699ZM100.942 14.7986C100.771 14.8272 100.442 14.8773 100.284 14.7199C100.549 14.7486 100.735 14.6699 100.942 14.7986ZM78.1332 0.515207C78.4479 1.01588 78.9772 1.09455 79.3706 1.54516C80.0787 2.17457 80.7653 2.81114 81.316 3.64797C81.6594 4.0199 82.16 4.25593 82.3675 4.69938C82.6822 4.82813 82.6536 5.25012 83.0541 5.35741C83.5047 5.88669 83.8981 6.43742 84.4202 6.83081C84.6062 7.2528 85.0782 7.43877 85.1283 7.93944C85.3357 8.28275 85.8149 8.54739 85.8364 9.01945C86.1225 9.54873 86.7018 9.80622 86.8377 10.4428C86.8663 10.7074 87.2597 10.6788 87.181 11.0221C87.2311 11.2582 87.5744 11.4155 87.6817 11.6301C87.7103 11.8161 87.9177 12.1308 88.1037 12.3382C88.2897 12.6028 88.4971 12.9175 88.7617 13.2036L84.7349 13.2537C84.1842 12.0449 83.1828 11.2009 82.5749 10.1209C82.2316 9.77761 81.9168 9.4343 81.6307 9.0123C81.4734 8.93362 81.2874 8.59031 81.1587 8.40434C81.0514 8.24699 80.8726 7.98235 80.6294 7.93228L80.5507 8.01096C80.7582 8.2756 81.0228 8.5617 81.1301 8.93362L80.5507 8.51163C80.2646 7.98235 79.8426 7.74632 79.392 7.46022C79.0773 7.46022 78.9414 7.72486 78.6267 7.72486C78.3907 8.14686 77.8614 8.25414 77.8614 8.69759C77.5467 8.80488 77.4895 9.19826 77.2034 9.35562C77.3894 9.749 76.7528 9.54158 76.7814 9.90636C76.4095 10.0351 76.4095 10.4571 76.0733 10.6144C75.7014 11.4298 75.1006 11.8518 74.65 12.5885C74.4426 12.7459 74.228 12.9032 74.1779 13.2179L74.3067 13.2966C74.886 13.4254 75.308 13.0892 75.8873 13.2465C76.0948 13.1965 76.388 13.1679 76.5954 13.3538C77.6468 13.0892 78.7769 13.1464 79.7783 13.2752C80.093 13.1178 80.4649 13.3824 80.7224 13.1965C81.3017 13.4611 81.9097 13.0677 82.4604 13.3824C83.9624 13.3824 85.7005 13.5112 87.2526 13.4325C87.5387 13.5613 87.8033 13.4826 88.1466 13.5112C88.5972 13.6685 89.1766 13.4325 89.5413 13.6971C89.6701 13.5398 89.7774 13.7472 89.8847 13.7258C89.8847 13.7758 89.9347 13.7758 89.9633 13.833C90.0134 13.8044 89.9919 13.7258 89.9919 13.7043C90.228 13.6542 90.5427 13.6256 90.7573 13.7329C91.0219 13.5756 91.3652 13.8116 91.73 13.7329C92.8601 13.8402 94.0975 14.019 95.1775 14.0762C95.5208 14.1835 95.8355 13.9975 96.1216 14.2336C97.0156 14.1549 97.7023 14.441 98.489 14.4982C98.6178 14.4982 98.7537 14.4696 98.861 14.5268C98.7036 14.5554 98.675 14.7629 98.8324 14.8701C99.8623 15.1849 101.257 15.1562 102.28 15.3708C102.437 15.1634 102.516 15.4996 102.673 15.4996C103.46 15.5282 104.254 15.707 104.991 15.8143C105.649 15.8429 106.071 16.0217 106.679 16.129C106.943 16.1576 107.308 16.1004 107.544 16.2577L107.623 16.3078C107.358 16.5939 107.015 16.2005 106.729 16.4151L106.857 16.5438C106.779 16.4937 106.75 16.5939 106.7 16.6225C106.75 16.9086 107.122 16.7298 107.201 16.9372C107.072 17.1232 106.965 16.8585 106.779 16.9372C106.249 17.0445 105.777 16.7298 105.463 17.2018C105.177 17.1518 105.069 17.0445 104.805 17.2304C104.597 17.0445 104.461 17.3091 104.197 17.2304C104.147 17.3592 104.354 17.3377 104.404 17.3878C104.404 17.4164 104.433 17.4379 104.454 17.4665C104.218 17.3878 103.875 17.4665 103.61 17.3878C103.66 17.2805 103.896 17.3592 104.004 17.2304C103.796 17.1804 103.66 17.0731 103.396 17.1017V17.3878C103.11 17.3592 102.924 17.2805 102.609 17.3091C102.001 17.1804 101.321 17.1518 100.685 17.0731L100.578 17.1804C100.313 16.9944 99.8409 17.1518 99.5762 16.9157C98.2602 17.1804 97.0729 16.365 95.8641 16.9944L95.0487 16.8657C94.7626 16.9444 94.5767 16.6583 94.2333 16.6797C93.5467 16.4937 93.3107 17.2304 92.6312 16.8871L92.5525 16.9372C92.0805 16.6511 91.5798 17.2805 91.2079 16.7512C91.0791 16.9372 90.8359 16.8299 90.6571 16.8585L90.6071 16.7798C90.1851 16.9658 89.6057 16.7798 89.1837 16.6726C89.055 16.6726 88.869 16.6225 88.8404 16.7512C88.447 16.6225 88.025 16.9086 87.6531 16.6225C87.4958 16.7012 87.3384 16.8085 87.1238 16.7512C86.9951 16.5152 86.6518 16.8013 86.4658 16.6225C86.0724 16.9944 85.6504 16.4651 85.257 16.8299C84.7278 16.88 84.2271 16.7012 83.8122 16.9873C82.1815 16.9873 80.7868 16.9873 79.1274 16.8585C79.0201 16.8585 78.8628 16.9873 78.7555 16.8585C78.5695 16.9372 78.2548 16.9372 78.0688 16.8585C77.0174 17.0659 75.966 16.9372 75.0147 17.2018C74.1708 17.0445 73.5413 17.4665 72.7546 17.4665C72.7045 17.5165 72.6258 17.5738 72.5472 17.5452C72.3898 17.3878 72.1538 17.5165 71.9392 17.4951C71.3885 17.6811 70.5945 17.5452 70.4372 18.2819C70.4873 18.2819 70.6231 18.2532 70.6732 18.3105C70.5945 18.6252 70.3299 18.9399 70.1725 19.2331C70.1439 19.4978 69.8292 19.6051 69.8006 19.8912C69.2213 20.4705 69.2713 21.3359 68.6705 21.8152C68.5132 22.3945 68.1985 22.9238 67.8552 23.3386C67.7765 23.732 67.3545 23.968 67.4046 24.3686C67.1399 24.7906 67.4546 25.3127 67.0112 25.6346C66.7251 25.7919 66.9611 26.0852 66.5606 26.1638C66.2745 26.5572 66.0599 27.0865 66.2173 27.53C66.1672 27.8447 65.7953 27.9019 65.9025 28.238C65.4305 28.5528 65.7953 29.2394 65.1658 29.3967C65.2731 29.7401 64.8511 29.7901 64.9584 30.1334C64.9298 30.8201 64.0143 30.9774 64.1144 31.7356C64.1144 32.1576 63.5351 32.3936 63.6138 32.8657C63.5065 33.1303 63.3491 33.1303 63.2991 33.445C63.0344 33.6024 63.2991 34.053 62.9557 34.2103C62.9843 34.947 62.3764 35.5764 62.3263 36.2631C62.1976 36.1343 62.0617 36.1844 61.9043 36.213C61.5896 36.449 61.747 36.871 61.4037 37.0785V37.1571C61.375 37.0785 61.3536 36.9211 61.2749 36.8138C60.9888 36.6851 60.8529 36.9211 60.6956 37.0785C60.5382 37.3932 60.4881 37.8152 60.1663 38.0226C60.0375 38.0726 60.059 37.8938 59.9589 37.8652C60.0375 37.8366 60.0375 37.7079 59.9875 37.6292L59.8587 37.5219C59.3295 37.7293 59.6513 38.5233 59.2007 38.838C59.072 39.3386 58.9933 39.8679 58.7286 40.2827C58.7573 40.4401 58.7286 40.5975 58.5713 40.7047C58.7573 40.812 58.4926 40.8621 58.5212 40.9408L58.4139 40.8621C58.0706 40.9908 58.1278 41.7061 57.6272 41.5702C57.5485 41.4915 57.6272 41.3628 57.5986 41.3055C56.8619 41.2769 57.2552 42.4356 56.4685 42.3355C56.3397 42.3355 56.2324 42.4642 56.1824 42.2854C56.1824 42.2354 56.1824 42.2068 56.211 42.1781C56.1037 42.0709 55.7389 42.2568 55.7103 41.9707C55.4457 41.9421 55.4242 41.7848 55.2597 41.5773C55.1024 41.6059 54.9164 41.7061 54.8663 41.4987C54.759 41.1053 54.8949 40.762 54.8663 40.3686C55.1024 39.9752 55.131 39.5246 55.2597 39.1026C54.8878 39.074 55.1524 38.7593 55.181 38.6305C55.2311 38.5805 55.181 38.5233 55.2597 38.5018H55.367C55.3169 38.6091 55.3169 38.7664 55.367 38.8737C55.4457 38.7664 55.4743 38.6091 55.4457 38.4231C55.2883 38.4231 55.2883 38.2944 55.2883 38.1585C55.4171 38.1084 55.3956 37.9224 55.3384 37.8438C55.5458 37.5791 55.4171 37.2358 55.6531 36.9497C55.5744 36.6851 55.7818 36.3203 55.8891 36.0056L56.0179 35.555C56.0465 35.6051 56.0679 35.6837 56.1466 35.6837C55.8605 35.0758 56.5185 34.711 56.4327 34.0816L56.6187 34.053C56.776 34.1603 56.4113 34.3176 56.6687 34.3677C56.776 34.1603 56.7474 33.9457 56.7975 33.7383L56.5901 33.6882C56.5901 33.5595 56.6974 33.5809 56.776 33.5022C56.8046 33.5523 56.8547 33.5809 56.9334 33.5809C56.9835 33.0302 57.4054 32.6869 57.0907 32.1576C57.4054 31.6283 57.5914 31.049 57.7488 30.4696C57.9562 30.4982 58.0134 30.2836 58.0349 30.1263C58.0849 29.9975 57.9061 29.9689 57.8775 29.9403L58.0062 29.7329C57.9276 29.7329 57.8489 29.6256 57.9276 29.5756C58.0062 29.4969 58.135 29.6256 58.1922 29.6828C58.321 29.2895 58.3782 28.9175 58.6428 28.5742L58.6929 27.9663C59.0076 27.9376 58.743 27.5157 59.0076 27.4155C58.743 27.4155 58.9003 27.1795 58.9575 27.0436C58.9575 27.0937 58.9289 27.1723 58.9861 27.2009C59.1149 27.1723 59.1149 26.9363 59.0147 26.8862C59.7514 26.2783 58.6214 26.0422 58.3567 25.6989C57.1694 24.9122 55.8534 23.9895 54.8592 22.8308C54.6732 22.3802 54.3871 22.2014 54.1225 21.8295C53.8078 21.5934 53.7506 21.1428 53.3357 21.0427C53.2856 20.964 53.257 20.8567 53.3643 20.7781C53.257 20.6493 53.021 20.6207 52.9924 20.4061C52.9423 20.1987 52.7564 20.0628 52.9137 19.8554C52.7564 19.5693 52.785 19.1974 52.5418 18.9327C52.5919 18.5608 52.3844 17.96 52.8064 17.8527C52.8565 18.0601 52.5704 18.2747 52.8064 18.4821C53.1497 18.0101 53.3858 17.352 53.9937 17.1661C54.1797 16.9587 54.4944 16.694 54.7805 16.5867C55.3098 16.4008 55.7818 16.0574 56.3326 15.9287L56.3826 15.8C56.4327 15.8786 56.54 15.8 56.54 15.7499C56.6974 15.8 56.8261 15.6212 56.9334 15.7785C56.9048 15.9072 56.6687 15.9072 56.6187 16.0431C56.776 16.0932 56.9048 15.9359 57.0693 15.8858C56.9119 15.7785 57.0407 15.6784 57.148 15.6212C57.2552 15.5711 57.4341 15.6712 57.4627 15.4924C57.8346 15.521 58.0706 15.285 58.4354 15.3064C58.8288 15.0203 59.3581 15.1777 59.8015 14.9631C59.7729 15.0132 59.7228 15.0704 59.7514 15.1491C59.9088 15.1992 59.9374 14.9131 60.0948 14.8844C60.5168 14.6985 60.8815 14.9131 61.2821 14.6198C61.3894 14.6985 61.4394 14.7486 61.3321 14.8272C61.2535 14.8272 61.1748 14.7986 61.1247 14.8773C61.2821 15.0847 61.5181 14.77 61.7327 14.7986C61.7827 14.77 61.84 14.6699 61.7613 14.6413L61.6826 14.5626C61.7327 14.5626 61.84 14.4553 61.8686 14.534L62.0259 14.7986C62.4193 14.5912 62.8914 14.6913 63.2633 14.4052C63.5279 14.3266 63.8927 14.4839 64.1287 14.298C64.4434 14.5054 64.5221 14.0333 64.8154 14.0905C65.0228 13.6185 65.1873 13.0606 65.5521 12.7244C65.5235 12.6171 65.502 12.4097 65.6594 12.4383C65.9455 12.4383 65.6093 12.1522 65.8453 12.1236C65.8739 11.8876 66.16 11.7302 66.11 11.4656C66.4247 11.1509 66.3961 10.6502 66.7394 10.2783C66.7108 9.99218 67.004 9.8849 66.9754 9.62026C67.1828 9.43429 67.2401 9.11959 67.3473 8.88356C67.662 8.61892 67.8194 8.22553 68.0554 7.88222C67.9481 7.64619 68.2628 7.56751 68.3701 7.46022C68.6848 6.95955 68.8708 6.22285 69.4001 5.82947C69.5074 5.45754 70.0581 5.20005 70.0581 4.69938C70.2655 4.74945 70.1869 4.38468 70.4014 4.51342C70.4515 4.35607 70.7161 4.38468 70.6088 4.14149C71.0595 4.03421 70.9808 3.4334 71.3455 3.40479C71.553 3.32611 71.5816 3.11869 71.6102 2.93273C72.0822 2.46067 72.6115 1.90278 73.2409 1.69536C73.3983 1.38065 73.6343 1.38065 73.7702 1.06595C73.9276 0.751238 74.3782 1.06595 74.5355 0.722628C75.1435 0.407921 75.6656 0.250567 76.2736 0.0145369C76.7456 -0.0355301 77.2177 0.0646039 77.6182 0.300634L78.1189 0.508055L78.1332 0.515207ZM101.164 14.9631L101.085 14.8558H101.271L101.164 14.9631ZM92.4023 18.8111C92.1949 18.5751 91.9016 18.2604 91.873 17.9672C92.1591 18.1746 92.295 18.4964 92.4023 18.8111ZM70.8735 18.0244C70.9021 18.103 70.8234 18.1317 70.7948 18.1817V18.0244H70.8735ZM92.9602 19.7338C92.8815 19.5264 92.5096 19.3118 92.5883 19.1044C92.7742 19.3118 92.9817 19.4978 92.9602 19.7338ZM93.1676 19.9412L92.9817 19.9126V19.7839C93.0603 19.7839 93.139 19.8912 93.1676 19.9412ZM93.5896 20.6493L93.4323 20.4634L93.5896 20.6207V20.6493ZM58.5856 28.3882C58.5856 28.3882 58.5355 28.4669 58.4783 28.4383C58.4282 28.3596 58.4783 28.2524 58.557 28.2023C58.6643 28.1737 58.6071 28.331 58.5856 28.3882ZM58.321 28.9175C58.321 28.9676 58.371 28.9962 58.3996 29.0248C58.3996 29.1321 58.2709 29.0534 58.2137 29.0749C58.1851 29.0463 58.1851 28.8675 58.321 28.9175ZM57.1122 32.5438C57.1122 32.6511 57.0621 32.7512 57.0335 32.8299V32.5438H57.1122ZM73.5628 32.7298H73.4054C73.4555 32.7798 73.5628 32.5724 73.5628 32.7298ZM74.1135 32.9944L74.2709 33.1017C74.0349 33.1017 73.8203 32.9944 73.6415 32.8156C73.8775 32.7655 73.9061 33.0016 74.1135 33.0016V32.9944ZM75.5083 33.6811C75.2222 33.7597 75.0362 33.395 74.6929 33.4164L74.6643 33.2877C74.9289 33.445 75.2722 33.4951 75.5083 33.6811ZM63.5279 33.9457C63.5279 33.9457 63.5565 34.0244 63.4993 34.053C63.342 33.9743 63.4707 33.9457 63.5279 33.9457ZM62.8985 35.8125C63.0058 35.9412 62.8985 36.0771 62.7412 36.0485C62.6625 35.9198 62.8485 35.8625 62.8985 35.8125Z" fill="white"/>
</g>
<defs>
<clipPath id="clip0_2657_1919">
<rect width="155.129" height="64" fill="white"/>
</clipPath>
</defs>
</svg>
