<svg width="194" height="80" viewBox="0 0 194 80" fill="none" xmlns="http://www.w3.org/2000/svg">
<g clip-path="url(#clip0_2728_8802)">
<path d="M6.18686 65.3643L0 79.7943H2.29772L3.79973 76.2896H10.8359L12.338 79.7943H14.7608L8.60975 65.3732H6.18686V65.3643ZM4.72061 74.1439L6.20474 70.6839C6.30308 70.4335 6.41037 70.1564 6.53554 69.8524C6.66071 69.5395 6.78587 69.2176 6.91998 68.8779C7.05409 68.5382 7.17926 68.1984 7.29549 67.8676C7.31337 67.8229 7.32231 67.7871 7.34019 67.7514C7.34019 67.7603 7.34019 67.7693 7.34913 67.7782C7.4743 68.1179 7.6084 68.4666 7.74251 68.8421C7.87662 69.2176 8.01073 69.5574 8.12696 69.8792C8.24318 70.2011 8.34153 70.4425 8.40411 70.6124L9.92401 74.1528H4.72955L4.72061 74.1439Z" fill="#1D1D1B"/>
<path d="M28.4595 70.1031C28.4595 70.6484 28.4595 71.1938 28.4685 71.7302C28.4685 72.2667 28.4863 72.7942 28.5132 73.3038C28.54 73.8134 28.5579 74.3141 28.5936 74.7879C28.6294 75.2617 28.6652 75.7177 28.7099 76.1469C28.7277 76.3614 28.7546 76.5671 28.7814 76.7638L19.1077 65.3556H17.0156V79.7767H19.2508V73.7776C19.2508 73.5541 19.2508 73.3127 19.2329 73.0445C19.215 72.7763 19.2061 72.4812 19.1792 72.1594C19.1614 71.8375 19.1256 71.4799 19.0898 71.0776C19.0451 70.6752 19.0094 70.2372 18.9647 69.7454C18.9378 69.3968 18.9021 69.0123 18.8753 68.601L28.5668 79.7678H30.6947V65.3467H28.4595V70.0852V70.1031Z" fill="#1D1D1B"/>
<path d="M39.1165 65.3643L32.9297 79.7854H35.2274L36.7294 76.2807H43.7656L45.2676 79.7854H47.6905L41.5394 65.3643H39.1165ZM37.6503 74.1439L39.1344 70.6839C39.2328 70.4335 39.3401 70.1564 39.4652 69.8524C39.5904 69.5395 39.7156 69.2176 39.8497 68.8779C39.9838 68.5382 40.1089 68.1984 40.2252 67.8676C40.2431 67.8229 40.252 67.7871 40.2699 67.7514C40.2699 67.7603 40.2699 67.7693 40.2788 67.7782C40.404 68.1179 40.5381 68.4666 40.6722 68.8421C40.8063 69.2176 40.9404 69.5574 41.0566 69.8792C41.1729 70.2011 41.2712 70.4425 41.3338 70.6124L42.8537 74.1528H37.6592L37.6503 74.1439Z" fill="#1D1D1B"/>
<path d="M61.6535 67.4295C61.0187 66.7679 60.2499 66.2583 59.3469 65.9007C58.4439 65.5431 57.4157 65.3643 56.2713 65.3643H49.9414V79.7854H56.2713C57.4157 79.7854 58.4439 79.6065 59.3558 79.2489C60.2677 78.8913 61.0366 78.3906 61.6625 77.7469C62.2883 77.1032 62.7711 76.3432 63.1019 75.4581C63.4327 74.582 63.6026 73.6164 63.6026 72.5703C63.6026 71.5243 63.4416 70.5855 63.1019 69.7183C62.7711 68.8421 62.2883 68.0822 61.6535 67.4206V67.4295ZM60.9472 74.6445C60.7237 75.2614 60.4018 75.7979 59.9816 76.2449C59.5614 76.6919 59.0339 77.0406 58.3902 77.282C57.7465 77.5323 57.0044 77.6486 56.164 77.6486H52.1676V67.51H56.164C57.0044 67.51 57.7465 67.6352 58.3813 67.8765C59.0161 68.1179 59.5436 68.4756 59.9727 68.9315C60.4018 69.3875 60.7237 69.9239 60.9472 70.5408C61.1707 71.1577 61.278 71.8372 61.278 72.5793C61.278 73.3213 61.1707 74.0187 60.9472 74.6356V74.6445Z" fill="#1D1D1B"/>
<path d="M78.6758 67.2958C77.9784 66.6163 77.1559 66.0888 76.2171 65.7223C75.2783 65.3557 74.2412 65.168 73.1237 65.168C72.0061 65.168 70.9601 65.3557 70.0213 65.7223C69.0825 66.0888 68.26 66.6163 67.5627 67.2869C66.8564 67.9574 66.3199 68.7442 65.9355 69.6472C65.56 70.5502 65.3633 71.5247 65.3633 72.5797C65.3633 73.6347 65.551 74.6181 65.9355 75.5122C66.311 76.4152 66.8564 77.2019 67.5627 77.8725C68.269 78.543 69.0915 79.0705 70.0213 79.4371C70.9601 79.8036 71.9972 79.9914 73.1237 79.9914C74.2502 79.9914 75.2694 79.8036 76.2171 79.4371C77.1648 79.0705 77.9873 78.543 78.6758 77.8635C79.3731 77.1841 79.9096 76.3973 80.3029 75.4943C80.6874 74.5913 80.8841 73.6257 80.8841 72.5797C80.8841 71.5336 80.6874 70.5681 80.3029 69.6651C79.9185 68.7621 79.3731 67.9753 78.6758 67.2958ZM78.2019 74.6718C77.9337 75.3065 77.5492 75.8698 77.0665 76.3437C76.5747 76.8175 75.9936 77.1841 75.332 77.4433C74.6615 77.7026 73.9283 77.8367 73.1237 77.8367C72.319 77.8367 71.5859 77.7026 70.9154 77.4433C70.2448 77.1841 69.6637 76.8175 69.163 76.3437C68.6623 75.8698 68.2868 75.3155 68.0276 74.6718C67.7683 74.037 67.6342 73.3396 67.6342 72.5797C67.6342 71.8197 67.7683 71.1313 68.0276 70.4876C68.2868 69.8528 68.6713 69.2896 69.163 68.8157C69.6547 68.3419 70.2448 67.9753 70.9154 67.716C71.5859 67.4567 72.319 67.3226 73.1237 67.3226C73.9283 67.3226 74.6615 67.4567 75.332 67.716C76.0025 67.9753 76.5837 68.3419 77.0665 68.8157C77.5582 69.2896 77.9337 69.8439 78.2019 70.4876C78.4701 71.1224 78.6042 71.8197 78.6042 72.5797C78.6042 73.3396 78.4701 74.028 78.2019 74.6718Z" fill="#1D1D1B"/>
<path d="M85.9539 65.3643H83.7188V79.7943H93.902V77.6486H85.9539V65.3643Z" fill="#1D1D1B"/>
<path d="M106.276 73.572C106.276 74.3677 106.088 75.0829 105.704 75.7177C105.319 76.3525 104.81 76.8532 104.175 77.2197C103.54 77.5863 102.807 77.774 101.994 77.774C101.18 77.774 100.518 77.5863 99.8925 77.2197C99.2667 76.8532 98.7571 76.3436 98.3815 75.7177C98.006 75.0829 97.8094 74.3677 97.8094 73.572V65.3467H95.5742V73.715C95.5742 74.8952 95.8424 75.9591 96.3878 76.8979C96.9332 77.8366 97.6842 78.5787 98.6498 79.1151C99.6153 79.6516 100.724 79.9198 101.985 79.9198C103.245 79.9198 104.354 79.6516 105.319 79.1151C106.285 78.5787 107.045 77.8366 107.59 76.8979C108.136 75.9591 108.404 74.8952 108.404 73.715V65.3467H106.276V73.572Z" fill="#1D1D1B"/>
<path d="M132.214 72.9372C132.196 72.8031 132.178 72.6511 132.151 72.4723H124.99V74.6538H129.808C129.826 75.0919 129.71 75.5121 129.469 75.8965C129.227 76.2899 128.879 76.6297 128.432 76.9158C127.985 77.2019 127.466 77.4254 126.876 77.5863C126.286 77.7472 125.669 77.8277 125.025 77.8277C124.256 77.8277 123.523 77.7025 122.835 77.4611C122.146 77.2108 121.53 76.8621 120.993 76.3972C120.457 75.9412 120.036 75.3869 119.732 74.7343C119.429 74.0905 119.277 73.3664 119.277 72.5707C119.277 71.8286 119.42 71.1491 119.715 70.5233C120.001 69.8974 120.412 69.3521 120.939 68.8872C121.467 68.4222 122.075 68.0557 122.772 67.7964C123.47 67.5371 124.221 67.403 125.034 67.403C125.589 67.403 126.125 67.4745 126.661 67.6265C127.189 67.7785 127.707 67.9842 128.19 68.2524C128.682 68.5206 129.147 68.8424 129.585 69.2269L131.033 67.6802C130.658 67.2242 130.166 66.8129 129.549 66.4464C128.932 66.0798 128.244 65.7758 127.466 65.5613C126.697 65.3378 125.875 65.2305 125.025 65.2305C123.89 65.2305 122.835 65.4182 121.86 65.7848C120.877 66.1603 120.019 66.6788 119.285 67.3404C118.543 68.011 117.971 68.7888 117.569 69.6829C117.158 70.5769 116.961 71.5336 116.961 72.5707C116.961 73.6793 117.167 74.6985 117.578 75.6104C117.989 76.5224 118.561 77.3091 119.294 77.9618C120.028 78.6145 120.868 79.1151 121.834 79.4638C122.79 79.8125 123.818 79.9913 124.909 79.9913C126 79.9913 126.948 79.8393 127.842 79.5443C128.736 79.2492 129.505 78.829 130.157 78.2747C130.81 77.7294 131.328 77.0588 131.695 76.2631C132.07 75.4763 132.258 74.5733 132.258 73.572C132.258 73.4737 132.258 73.3753 132.249 73.277C132.24 73.1786 132.231 73.0534 132.222 72.9283L132.214 72.9372Z" fill="#1D1D1B"/>
<path d="M144.249 73.795C144.973 73.3838 145.554 72.8295 145.983 72.15C146.421 71.4616 146.636 70.7106 146.636 69.9059C146.636 69.0566 146.43 68.2877 146.019 67.5992C145.608 66.9108 145.044 66.3654 144.338 65.9721C143.632 65.5787 142.863 65.373 142.022 65.373H134.941V79.7941H137.177V74.4119H141.137L144.588 79.7941L147.342 79.812L143.614 74.0901C143.828 74.0096 144.043 73.9113 144.249 73.795ZM137.177 67.5098H141.54C142.067 67.5098 142.532 67.6171 142.961 67.8228C143.39 68.0284 143.712 68.3145 143.953 68.6632C144.195 69.0208 144.32 69.4231 144.32 69.8791C144.32 70.335 144.213 70.7195 143.998 71.0861C143.784 71.4526 143.498 71.7387 143.131 71.9533C142.764 72.1679 142.353 72.2751 141.897 72.2751H137.177V67.5188V67.5098Z" fill="#1D1D1B"/>
<path d="M160.339 73.572C160.339 74.3677 160.151 75.0829 159.766 75.7177C159.382 76.3525 158.872 76.8532 158.238 77.2197C157.603 77.5863 156.87 77.774 156.056 77.774C155.242 77.774 154.581 77.5863 153.955 77.2197C153.329 76.8532 152.82 76.3436 152.444 75.7177C152.069 75.0829 151.872 74.3677 151.872 73.572V65.3467H149.637V73.715C149.637 74.8952 149.905 75.9591 150.45 76.8979C150.996 77.8366 151.747 78.5787 152.712 79.1151C153.678 79.6516 154.786 79.9198 156.047 79.9198C157.308 79.9198 158.416 79.6516 159.382 79.1151C160.348 78.5787 161.107 77.8366 161.653 76.8979C162.198 75.9591 162.466 74.8952 162.466 73.715V65.3467H160.339V73.572Z" fill="#1D1D1B"/>
<path d="M176.79 72.4359C176.451 72.2124 176.075 72.0425 175.682 71.9084C176.218 71.6939 176.656 71.3809 176.996 70.9876C177.461 70.4332 177.702 69.7716 177.702 69.0028C177.702 68.2339 177.524 67.5544 177.157 67.018C176.79 66.4726 176.254 66.0703 175.557 65.7931C174.85 65.5159 173.983 65.3818 172.946 65.3818H166.16V79.8029H173.277C174.01 79.8029 174.68 79.7225 175.306 79.5526C175.932 79.3827 176.478 79.1413 176.951 78.8016C177.425 78.4619 177.801 78.0238 178.069 77.4784C178.337 76.933 178.471 76.2893 178.471 75.5472C178.471 74.8499 178.319 74.233 178.015 73.7144C177.711 73.1959 177.309 72.7667 176.79 72.4359ZM168.386 67.5097H172.776C173.581 67.5097 174.216 67.6617 174.698 67.9746C175.181 68.2875 175.423 68.7524 175.423 69.3872C175.423 69.7538 175.315 70.0846 175.101 70.3796C174.886 70.6657 174.6 70.8982 174.233 71.0591C173.867 71.22 173.465 71.3094 173.026 71.3094H168.386V67.5186V67.5097ZM175.816 76.6916C175.566 77.0135 175.226 77.2549 174.788 77.4158C174.35 77.5767 173.831 77.6483 173.223 77.6483H168.377V73.4462H173.116C173.67 73.4462 174.171 73.5177 174.636 73.6608C175.101 73.8038 175.467 74.0273 175.753 74.3313C176.039 74.6353 176.174 75.0287 176.174 75.5025C176.174 75.9764 176.048 76.3608 175.798 76.6916H175.816Z" fill="#1D1D1B"/>
<path d="M191.776 65.3467V73.572C191.776 74.3677 191.588 75.0829 191.204 75.7177C190.819 76.3525 190.31 76.8532 189.675 77.2197C189.04 77.5863 188.307 77.774 187.494 77.774C186.68 77.774 186.018 77.5863 185.393 77.2197C184.767 76.8532 184.257 76.3436 183.882 75.7177C183.506 75.0829 183.309 74.3677 183.309 73.572V65.3467H181.074V73.715C181.074 74.8952 181.342 75.9591 181.888 76.8979C182.433 77.8366 183.184 78.5787 184.15 79.1151C185.115 79.6516 186.224 79.9198 187.485 79.9198C188.745 79.9198 189.854 79.6516 190.819 79.1151C191.785 78.5787 192.545 77.8366 193.09 76.8979C193.636 75.9591 193.904 74.8952 193.904 73.715V65.3467H191.776Z" fill="#1D1D1B"/>
<path d="M114.413 21.6627C114.476 21.8952 114.672 22.0919 114.842 22.2886C114.779 22.3243 114.744 22.3869 114.681 22.3512C114.449 22.5121 114.547 22.6462 114.547 22.8787C114.842 23.0396 114.779 23.4061 115.11 23.6386C115.343 24.0677 115.602 24.4254 115.87 24.8188C115.906 24.8813 116.103 25.1138 116.228 25.2837C116.29 25.5161 116.425 25.8112 116.657 26.0436C116.523 26.142 116.72 26.2403 116.791 26.3029C116.827 26.3386 116.854 26.2403 116.889 26.3029C116.952 26.4996 117.024 26.6963 117.05 26.893C117.515 27.2506 117.408 27.8138 117.873 28.1804C118.365 28.7705 118.499 29.3605 118.99 29.9596L118.955 30.0579C119.777 31.3096 120.269 32.3646 120.6 33.7414C120.895 34.0007 120.501 34.4298 120.931 34.6981C120.832 35.4222 121.717 35.6189 121.521 36.4415C121.717 36.7991 121.851 37.2998 121.95 37.7557C122.245 38.0508 121.986 38.2475 122.182 38.614C122.048 38.6498 122.12 38.8733 122.12 39.0074C122.415 39.2667 122.084 39.964 122.611 40.2233C122.549 40.2859 122.415 40.3574 122.45 40.5183C122.978 41.2783 122.808 42.5926 122.611 43.4777C122.611 43.7101 122.808 43.8353 122.611 44.0409C122.871 44.2376 122.611 44.5327 122.906 44.6668C123.041 45.1317 122.281 45.1943 122.549 45.6502C122.352 46.4102 122.316 47.1344 121.825 47.787V48.0821C121.297 48.5112 121.065 49.4947 120.278 49.7271C119.554 50.4871 118.338 50.4155 117.515 50.2546C116.594 50.4871 115.808 49.9238 114.914 49.7271C114.878 49.7271 114.779 49.6913 114.753 49.7629V49.8612C112.58 49.1728 110.211 48.3771 107.94 47.6261C107.055 47.2327 105.937 47.0628 105.213 46.5443C105.052 46.6784 105.052 46.4102 104.882 46.4459V46.3118C104.686 46.5443 104.221 46.2135 103.961 46.1509L103.863 46.0525L103.8 46.1509C103.076 45.8559 102.316 45.5608 101.628 45.23C101.065 45.1317 100.51 44.8724 100.045 44.6399C100.144 44.5416 100.439 44.8366 100.537 44.5774C100.305 44.479 100.242 43.8889 99.8756 44.2197L99.813 44.479C99.3213 44.5148 98.8921 44.2197 98.4988 43.9873C98.2037 43.8264 97.7746 43.9873 97.6762 43.5939C97.3812 43.7548 97.3454 43.3614 97.0861 43.3972C96.1653 43.1379 95.3427 42.6104 94.5202 42.2439C94.8153 42.2081 94.6811 41.9488 94.5828 41.779C94.1894 41.6806 93.957 41.3141 93.5278 41.2872C93.1344 41.0548 92.741 40.8581 92.3477 40.6972C91.7576 40.6346 91.2659 40.1071 90.6668 39.9104C90.3718 40.1428 90.336 39.6154 90.041 39.5528C89.5761 39.4544 89.2542 39.061 88.691 38.9627C87.8059 38.6051 86.9476 38.1402 86.0625 37.711C85.5976 37.3802 85.0075 37.2193 84.6141 36.8527C84.9717 36.656 85.2757 37.2461 85.6691 37.0494L85.535 36.8527L85.7942 36.7901C85.7942 36.5577 85.4634 36.4593 85.2668 36.2984L85.4009 36.2001C85.7585 36.4951 86.3575 36.4593 86.6883 36.7633C86.9207 36.6292 87.3141 36.8974 87.4751 36.5309C87.7701 36.4325 87.8327 37.1567 88.1635 36.7276C88.5211 36.8259 88.691 36.9868 89.0486 36.9243C88.986 36.8259 88.8161 36.7276 88.8161 36.5935C89.0754 36.8259 89.5046 36.8259 89.7728 37.0584C89.6119 37.0584 89.442 37.0226 89.2453 37.0941C89.442 37.1925 89.6387 37.4249 89.9337 37.4517C90.0321 37.3176 89.8711 37.2551 89.9695 37.1209C90.8904 37.3176 91.5788 37.9792 92.4371 38.2385C93.1255 38.6319 93.948 38.4978 94.4755 39.0968C94.9672 39.1951 95.6288 39.3293 96.0848 39.6243C96.1206 39.821 96.4156 39.7226 96.514 39.9193C96.9073 40.0177 97.3991 40.2144 97.8282 40.4111C98.3557 40.4736 99.0084 40.1786 99.4733 40.6435C99.7057 40.6078 99.7683 40.9743 100.001 40.7419C100.037 41.1352 100.528 41.0995 100.689 41.3319C101.118 41.2336 101.646 41.7611 102.003 41.3319C102.361 41.3677 102.531 41.7611 102.889 41.627C103.318 42.0919 104.104 41.627 104.373 42.2886C104.605 42.2528 104.963 42.3243 105.133 42.521C105.66 42.2886 106.116 42.8161 106.617 42.9859C106.912 43.4509 107.538 43.2184 108.003 43.3793C108.235 43.6118 108.628 43.3793 108.923 43.4151V43.5134C109.612 43.8085 110.238 43.8085 110.926 43.8711L111.185 43.6744C110.989 43.576 110.72 43.576 110.497 43.576C110.238 43.5403 109.934 43.5134 109.809 43.281C110.372 43.281 110.89 43.1826 111.391 43.281C111.856 43.12 112.741 43.2184 112.839 42.5926C113.528 41.6091 114.324 40.4826 114.324 39.3382C114.359 38.8733 114.654 38.4531 114.458 38.0865V37.7557C114.297 36.8348 114.395 35.7173 114.1 34.7964C114.037 33.8755 114.002 32.9904 113.51 32.2662C113.608 31.8371 113.349 31.6762 113.349 31.2828C113.09 31.0235 113.188 30.3261 112.857 30.1026C112.956 29.7718 112.661 29.7092 112.562 29.441C112.464 28.9493 112.267 28.5827 112.071 28.1268C111.91 27.7334 111.713 27.3668 111.606 26.9466C111.176 26.589 111.248 25.8648 110.917 25.534C110.354 24.1482 109.469 22.8697 108.745 21.5555L114.44 21.7164L114.413 21.6627ZM78.6776 17.9792C78.615 18.0776 78.4809 18.1402 78.3468 18.1133C78.3825 18.015 78.5792 17.9792 78.6776 17.9792ZM124.9 18.3369C124.569 18.3369 123.979 18.3369 123.72 18.1759C124.149 18.1133 124.543 18.2743 124.9 18.3369ZM126.179 18.4978C125.964 18.5336 125.553 18.5961 125.356 18.3994C125.687 18.4352 125.919 18.3369 126.179 18.4978ZM97.6673 0.643521C98.0607 1.26936 98.7223 1.36771 99.214 1.93096C100.099 2.71773 100.957 3.51344 101.646 4.55948C102.075 5.02439 102.701 5.31943 102.96 5.87374C103.353 6.03467 103.318 6.56216 103.818 6.69627C104.382 7.35787 104.873 8.04629 105.526 8.53802C105.758 9.06551 106.349 9.29797 106.411 9.92381C106.67 10.353 107.269 10.6838 107.296 11.2738C107.654 11.9354 108.378 12.2573 108.548 13.053C108.584 13.3838 109.075 13.348 108.977 13.7772C109.04 14.0722 109.469 14.2689 109.603 14.5371C109.639 14.7696 109.898 15.163 110.13 15.4222C110.363 15.753 110.622 16.1464 110.953 16.504L105.919 16.5666C105.231 15.0557 103.979 14.0007 103.219 12.6507C102.79 12.2215 102.397 11.7924 102.039 11.2649C101.843 11.1665 101.61 10.7374 101.449 10.5049C101.315 10.3083 101.092 9.97745 100.788 9.91487L100.689 10.0132C100.948 10.344 101.279 10.7016 101.413 11.1665L100.689 10.639C100.332 9.97745 99.8041 9.68241 99.2408 9.32479C98.8474 9.32479 98.6776 9.65559 98.2842 9.65559C97.9891 10.1831 97.3275 10.3172 97.3275 10.8715C96.9342 11.0056 96.8626 11.4973 96.505 11.694C96.7375 12.1858 95.9418 11.9265 95.9775 12.3825C95.5126 12.5434 95.5126 13.0709 95.0924 13.2676C94.6275 14.2868 93.8765 14.8143 93.3132 15.7352C93.054 15.9319 92.7857 16.1285 92.7232 16.5219L92.8841 16.6203C93.6083 16.7812 94.1358 16.361 94.86 16.5577C95.1192 16.4951 95.4858 16.4593 95.7451 16.6918C97.0593 16.361 98.4719 16.4325 99.7236 16.5935C100.117 16.3968 100.582 16.7276 100.904 16.4951C101.628 16.8259 102.388 16.3342 103.076 16.7276C104.954 16.7276 107.126 16.8885 109.066 16.7901C109.424 16.9511 109.755 16.8527 110.184 16.8885C110.747 17.0852 111.471 16.7901 111.927 17.1209C112.088 16.9243 112.222 17.1835 112.357 17.1567C112.357 17.2193 112.419 17.2193 112.455 17.2908C112.518 17.2551 112.491 17.1567 112.491 17.1299C112.786 17.0673 113.179 17.0315 113.447 17.1656C113.778 16.969 114.207 17.264 114.663 17.1656C116.076 17.2998 117.623 17.5233 118.973 17.5948C119.402 17.7289 119.795 17.4964 120.153 17.7915C121.27 17.6931 122.129 18.0508 123.112 18.1223C123.273 18.1223 123.443 18.0865 123.577 18.158C123.38 18.1938 123.345 18.4531 123.541 18.5872C124.829 18.9806 126.572 18.9448 127.851 19.213C128.047 18.9538 128.146 19.374 128.342 19.374C129.326 19.4097 130.318 19.6332 131.239 19.7673C132.062 19.8031 132.589 20.0266 133.349 20.1607C133.68 20.1965 134.136 20.125 134.431 20.3217L134.529 20.3842C134.198 20.7419 133.769 20.2501 133.412 20.5184L133.573 20.6793C133.474 20.6167 133.438 20.7419 133.376 20.7776C133.438 21.1352 133.903 20.9117 134.002 21.171C133.841 21.4035 133.707 21.0727 133.474 21.171C132.813 21.3051 132.222 20.9117 131.829 21.5018C131.471 21.4392 131.337 21.3051 131.007 21.5376C130.747 21.3051 130.577 21.6359 130.247 21.5376C130.184 21.6985 130.443 21.6717 130.506 21.7343C130.506 21.77 130.542 21.7968 130.568 21.8326C130.273 21.7343 129.844 21.8326 129.514 21.7343C129.576 21.6002 129.871 21.6985 130.005 21.5376C129.746 21.475 129.576 21.3409 129.245 21.3766V21.7343C128.888 21.6985 128.655 21.6002 128.262 21.6359C127.502 21.475 126.653 21.4392 125.857 21.3409L125.723 21.475C125.392 21.2425 124.802 21.4392 124.471 21.1442C122.826 21.475 121.342 20.4558 119.831 21.2425L118.812 21.0816C118.454 21.18 118.222 20.8223 117.792 20.8492C116.934 20.6167 116.639 21.5376 115.79 21.1084L115.691 21.171C115.101 20.8134 114.476 21.6002 114.011 20.9386C113.85 21.171 113.546 21.0369 113.322 21.0727L113.26 20.9743C112.732 21.2068 112.008 20.9743 111.48 20.8402C111.319 20.8402 111.087 20.7776 111.051 20.9386C110.56 20.7776 110.032 21.1352 109.567 20.7776C109.37 20.876 109.174 21.0101 108.906 20.9386C108.745 20.6435 108.315 21.0011 108.083 20.7776C107.591 21.2425 107.064 20.5809 106.572 21.0369C105.91 21.0995 105.285 20.876 104.766 21.2336C102.728 21.2336 100.984 21.2336 98.91 21.0727C98.7759 21.0727 98.5792 21.2336 98.4451 21.0727C98.2127 21.171 97.8193 21.171 97.5868 21.0727C96.2726 21.3319 94.9583 21.171 93.7692 21.5018C92.7142 21.3051 91.9275 21.8326 90.944 21.8326C90.8814 21.8952 90.7831 21.9667 90.6847 21.931C90.488 21.7343 90.193 21.8952 89.9248 21.8684C89.2364 22.1008 88.244 21.931 88.0473 22.8518C88.1098 22.8518 88.2797 22.8161 88.3423 22.8876C88.2439 23.281 87.9132 23.6744 87.7165 24.0409C87.6807 24.3717 87.2873 24.5058 87.2515 24.8635C86.5274 25.5876 86.59 26.6694 85.8389 27.2685C85.6423 27.9926 85.2489 28.6542 84.8197 29.1728C84.7214 29.6645 84.1939 29.9596 84.2565 30.4602C83.9257 30.9877 84.3191 31.6404 83.7647 32.0427C83.4071 32.2394 83.7022 32.606 83.2015 32.7043C82.8439 33.196 82.5756 33.8576 82.7723 34.412C82.7098 34.8053 82.2448 34.8769 82.379 35.2971C81.7889 35.6905 82.2448 36.5487 81.4581 36.7454C81.5922 37.1746 81.0647 37.2372 81.1988 37.6663C81.163 38.5246 80.0186 38.7213 80.1438 39.669C80.1438 40.1965 79.4196 40.4915 79.518 41.0816C79.3839 41.4124 79.1872 41.4124 79.1246 41.8058C78.7938 42.0025 79.1246 42.5657 78.6954 42.7624C78.7312 43.6833 77.9713 44.4701 77.9087 45.3284C77.7477 45.1674 77.5779 45.23 77.3812 45.2658C76.9878 45.5608 77.1845 46.0883 76.7553 46.3476V46.4459C76.7196 46.3476 76.6928 46.1509 76.5944 46.0168C76.2368 45.8559 76.0669 46.1509 75.8702 46.3476C75.6735 46.741 75.611 47.2685 75.2086 47.5277C75.0477 47.5903 75.0745 47.3668 74.9494 47.331C75.0477 47.2953 75.0477 47.1344 74.9851 47.036L74.8242 46.9019C74.1626 47.1612 74.5649 48.1536 74.0017 48.547C73.8407 49.1728 73.7424 49.8344 73.4116 50.3529C73.4473 50.5496 73.4116 50.7463 73.2149 50.8804C73.4473 51.0145 73.1165 51.0771 73.1523 51.1755L73.0182 51.0771C72.5891 51.2381 72.6606 52.1321 72.0347 51.9622C71.9364 51.8639 72.0347 51.703 71.999 51.6314C71.0781 51.5957 71.5698 53.0441 70.5864 52.9189C70.4254 52.9189 70.2913 53.0798 70.2288 52.8563C70.2288 52.7937 70.2287 52.758 70.2645 52.7222C70.1304 52.5881 69.6744 52.8205 69.6387 52.4629C69.3079 52.4272 69.2811 52.2305 69.0754 51.9712C68.8787 52.007 68.6463 52.1321 68.5837 51.8728C68.4496 51.3811 68.6195 50.952 68.5837 50.4602C68.8787 49.9685 68.9145 49.4053 69.0754 48.8778C68.6105 48.842 68.9413 48.4486 68.9771 48.2877C69.0397 48.2251 68.9771 48.1536 69.0754 48.1268H69.2095C69.1469 48.2609 69.1469 48.4576 69.2095 48.5917C69.3079 48.4576 69.3436 48.2609 69.3079 48.0284C69.1112 48.0284 69.1112 47.8675 69.1112 47.6976C69.2721 47.635 69.2453 47.4026 69.1738 47.3042C69.433 46.9734 69.2721 46.5443 69.5671 46.1867C69.4688 45.8559 69.7281 45.3999 69.8622 45.0065L70.0231 44.4432C70.0589 44.5058 70.0857 44.6042 70.184 44.6042C69.8264 43.8442 70.649 43.3883 70.5417 42.6015L70.7741 42.5657C70.9708 42.6998 70.5149 42.8965 70.8367 42.9591C70.9708 42.6998 70.9351 42.4316 70.9976 42.1723L70.7384 42.1098C70.7384 41.9488 70.8725 41.9757 70.9708 41.8773C71.0066 41.9399 71.0692 41.9757 71.1675 41.9757C71.2301 41.2872 71.7576 40.8581 71.3642 40.1965C71.7576 39.5349 71.99 38.8107 72.1867 38.0865C72.446 38.1223 72.5175 37.8541 72.5444 37.6574C72.6069 37.4964 72.3834 37.4607 72.3477 37.4249L72.5086 37.1656C72.4102 37.1656 72.3119 37.0315 72.4102 36.969C72.5086 36.8706 72.6695 37.0315 72.741 37.1031C72.902 36.6113 72.9735 36.1464 73.3043 35.7173L73.3669 34.9573C73.7603 34.9216 73.4295 34.3941 73.7603 34.2689C73.4295 34.2689 73.6262 33.9739 73.6977 33.804C73.6977 33.8666 73.6619 33.9649 73.7334 34.0007C73.8944 33.9649 73.8944 33.6699 73.7692 33.6073C74.6901 32.8474 73.2775 32.5523 72.9467 32.1232C71.4625 31.1397 69.8175 29.9864 68.5747 28.538C68.3423 27.9748 67.9847 27.7513 67.6539 27.2863C67.2605 26.9913 67.189 26.4281 66.6704 26.3029C66.6078 26.2045 66.5721 26.0704 66.7062 25.9721C66.5721 25.8112 66.277 25.7754 66.2413 25.5072C66.1787 25.2479 65.9462 25.078 66.1429 24.8188C65.9462 24.4611 65.982 23.9962 65.678 23.6654C65.7406 23.2005 65.4813 22.4495 66.0088 22.3154C66.0714 22.5747 65.7138 22.8429 66.0088 23.1022C66.438 22.5121 66.733 21.6896 67.4929 21.4571C67.7254 21.1978 68.1188 20.867 68.4764 20.7329C69.138 20.5005 69.7281 20.0713 70.4165 19.9104L70.4791 19.7495C70.5417 19.8478 70.6758 19.7495 70.6758 19.6869C70.8725 19.7495 71.0334 19.5259 71.1675 19.7226C71.1317 19.8836 70.8367 19.8836 70.7741 20.0534C70.9708 20.116 71.1317 19.9193 71.3374 19.8568C71.1407 19.7226 71.3016 19.5975 71.4357 19.526C71.5698 19.4634 71.7933 19.5885 71.8291 19.365C72.294 19.4008 72.5891 19.1057 73.045 19.1326C73.5368 18.7749 74.1984 18.9716 74.7527 18.7034C74.7169 18.766 74.6543 18.8375 74.6901 18.9359C74.8868 18.9985 74.9225 18.6408 75.1192 18.6051C75.6467 18.3726 76.1027 18.6408 76.6034 18.2743C76.7375 18.3726 76.8001 18.4352 76.6659 18.5336C76.5676 18.5336 76.4693 18.4978 76.4067 18.5961C76.6034 18.8554 76.8984 18.462 77.1666 18.4978C77.2292 18.462 77.3007 18.3369 77.2024 18.3011L77.104 18.2028C77.1666 18.2028 77.3007 18.0686 77.3365 18.167L77.5332 18.4978C78.0249 18.2385 78.615 18.3637 79.0799 18.0061C79.4107 17.9077 79.8667 18.1044 80.1617 17.872C80.5551 18.1312 80.6534 17.5412 81.02 17.6127C81.2793 17.0226 81.4849 16.3252 81.9409 15.905C81.9051 15.7709 81.8783 15.5116 82.075 15.5474C82.4326 15.5474 82.0124 15.1898 82.3074 15.154C82.3432 14.859 82.7008 14.6623 82.6382 14.3315C83.0316 13.9381 82.9958 13.3123 83.425 12.8474C83.3892 12.4897 83.7558 12.3556 83.72 12.0248C83.9793 11.7924 84.0508 11.399 84.1849 11.104C84.5783 10.7732 84.775 10.2814 85.0701 9.85228C84.936 9.55724 85.3293 9.4589 85.4634 9.32479C85.8568 8.69895 86.0893 7.77808 86.7509 7.28635C86.885 6.82144 87.5734 6.49958 87.5734 5.87374C87.8327 5.93632 87.7343 5.48036 88.0026 5.64129C88.0651 5.44459 88.3959 5.48036 88.2618 5.17638C88.8251 5.04227 88.7267 4.29126 89.1827 4.2555C89.442 4.15716 89.4777 3.89788 89.5135 3.66543C90.1036 3.07535 90.7652 2.37799 91.552 2.11871C91.7486 1.72533 92.0437 1.72533 92.2136 1.33194C92.4102 0.938559 92.9735 1.33194 93.1702 0.902797C93.9301 0.509413 94.5828 0.312721 95.3427 0.0176829C95.9328 -0.044901 96.5229 0.0802666 97.0236 0.375305L97.6494 0.63458L97.6673 0.643521ZM126.456 18.7034L126.357 18.5693H126.59L126.456 18.7034ZM115.504 23.5134C115.244 23.2184 114.878 22.825 114.842 22.4585C115.2 22.7177 115.37 23.12 115.504 23.5134ZM88.5926 22.53C88.6284 22.6283 88.5301 22.6641 88.4943 22.7267V22.53H88.5926ZM116.201 24.6668C116.103 24.4075 115.638 24.1393 115.736 23.88C115.969 24.1393 116.228 24.3717 116.201 24.6668ZM116.46 24.926L116.228 24.8903V24.7293C116.326 24.7293 116.425 24.8635 116.46 24.926ZM116.988 25.8112L116.791 25.5787L116.988 25.7754V25.8112ZM73.2328 35.4848C73.2328 35.4848 73.1702 35.5832 73.0987 35.5474C73.0361 35.4491 73.0987 35.315 73.197 35.2524C73.3311 35.2166 73.2596 35.4133 73.2328 35.4848ZM72.902 36.1464C72.902 36.209 72.9646 36.2448 73.0003 36.2805C73.0003 36.4146 72.8394 36.3163 72.7679 36.3431C72.7321 36.3074 72.7321 36.0838 72.902 36.1464ZM71.391 40.6793C71.391 40.8134 71.3284 40.9386 71.2927 41.0369V40.6793H71.391ZM91.9543 40.9117H91.7576C91.8202 40.9743 91.9543 40.715 91.9543 40.9117ZM92.6427 41.2425L92.8394 41.3766C92.5444 41.3766 92.2761 41.2425 92.0526 41.019C92.3477 40.9564 92.3834 41.2515 92.6427 41.2515V41.2425ZM94.3861 42.1008C94.0285 42.1992 93.796 41.7432 93.3669 41.77L93.3311 41.6091C93.6619 41.8058 94.0911 41.8684 94.3861 42.1008ZM79.4107 42.4316C79.4107 42.4316 79.4465 42.53 79.3749 42.5657C79.1782 42.4674 79.3392 42.4316 79.4107 42.4316ZM78.6239 44.7651C78.758 44.926 78.6239 45.0959 78.4272 45.0601C78.3289 44.8992 78.5613 44.8277 78.6239 44.7651Z" fill="#EA0029"/>
</g>
<defs>
<clipPath id="clip0_2728_8802">
<rect width="193.911" height="80" fill="white"/>
</clipPath>
</defs>
</svg>
